PathFileType	4	(X/Y/Z)	49_2_rein_33_p1_0-192_filt_butterworth.trc
DataRate	CameraRate	NumFrames	NumMarkers	Units	OrigDataRate	OrigDataStartFrame	OrigNumFrames
60.0	60.0	7	27	m	60.0	96	192
Frame#	Time	RHip			RKnee			RAnkle			RBigToe			RSmallToe			RHeel			LHip			LKnee			LAnkle			LBigToe			LSmallToe			LHeel			Neck			Head			Nose			RShoulder			RElbow			RWrist			RThumb			RIndex			RPinky			LShoulder			LElbow			LWrist			LThumb			LIndex			LPinky			
		X1	Y1	Z1	X2	Y2	Z2	X3	Y3	Z3	X4	Y4	Z4	X5	Y5	Z5	X6	Y6	Z6	X7	Y7	Z7	X8	Y8	Z8	X9	Y9	Z9	X10	Y10	Z10	X11	Y11	Z11	X12	Y12	Z12	X13	Y13	Z13	X14	Y14	Z14	X15	Y15	Z15	X16	Y16	Z16	X17	Y17	Z17	X18	Y18	Z18	X19	Y19	Z19	X20	Y20	Z20	X21	Y21	Z21	X22	Y22	Z22	X23	Y23	Z23	X24	Y24	Z24	X25	Y25	Z25	X26	Y26	Z26	X27	Y27	Z27	
96	1.6	0.3861867545344374	0.602249289635194	0.730552011673621	0.35549646111535604	0.846511143995081	1.1866385114432716	0.3313514624406798	1.0675382468530692	1.597381027430937	0.30367466236336654	0.8348504057699527	1.6716727040330894	0.37274462429412586	0.8498478649243595	1.6687412311074517	0.32414669951709607	1.1523512845391346	1.632519926600216	0.1729135793691992	0.6202366635316957	0.7244009040321687	0.18276467085339676	0.8264524460597235	1.1718881050514878	0.19005273864089622	1.0601269190741593	1.5862796409339075	0.15941154945866232	0.8403766666399246	1.6613316424059517	0.11367248402280201	0.9040406731337514	1.6623393900725425	0.20661594123563887	1.1550309835536723	1.6493274878704927	0.2768220473940981	0.4304160771912057	0.2634801023603981	0.2860592162481366	0.2927079237361137	0.052551409994789536	0.27273588562020895	0.27914038645824063	0.2053195658646092	0.44116880033280137	0.47283814354970516	0.32342402301792794	0.5021747440694537	0.564368921744843	0.5691286036689842	0.4922750672360876	0.5944316202264933	0.8253193292245699	0.42613786312500174	0.5921925681321483	0.9458098741704621	0.44486179940316384	0.5595439050330855	0.9594950049495603	0.47225678445030755	0.5838564607680836	0.9574983035354601	0.11965226834831551	0.5099974088408848	0.2841441246010351	0.04698418055132513	0.624863964847996	0.5241495848123637	0.030766733692407715	0.6275628731531745	0.7835308620162628	0.04568348398629219	0.577459896286034	0.8928188771528218	0.028721838174370646	0.5437057858690789	0.9126192495086667	0.008489087602517724	0.6434764662808599	0.9062178912455242
97	1.6166666666666667	0.3861803170079492	0.6022161596652607	0.7305061020607733	0.35547179291697906	0.8463895370783947	1.1864283041677373	0.331245119213409	1.06717814925004	1.59732216917496	0.3038047801366192	0.8350162819938619	1.6715924090554333	0.3721323549746839	0.8453917080431621	1.6666787414793565	0.3241516198445008	1.152308320363348	1.6325309092065083	0.17290737213079024	0.6202234941063172	0.724353988084181	0.18293186030338984	0.8259435723557267	1.171838456821194	0.19110915790639255	1.0653301344645736	1.5876580996212724	0.15939360442022052	0.8403784494920601	1.6614585033407254	0.11364422468246728	0.9044604169461036	1.6621720230222905	0.20698953141988607	1.150873792335485	1.649351619548498	0.2767814137238137	0.43032654125792225	0.2631651176761222	0.28502227668631885	0.28956552228689436	0.05327851203143831	0.27272832207842623	0.279217561126943	0.2053134999017224	0.44114736729737486	0.4728037380085659	0.3234550007119745	0.5022551553715561	0.5644250732692008	0.5691551354719574	0.4922752055890418	0.5944585997863043	0.8253186880533094	0.4274516064255405	0.5863340693473804	0.9448282215492818	0.4449187993518401	0.5603410522085575	0.9594720716033981	0.4722611267034897	0.5839968845425265	0.9574969781789172	0.11965367429450746	0.5099972029622616	0.28415206095928786	0.046848187712528536	0.6247937679285487	0.5251550294998341	0.029193255182969516	0.6324259624139427	0.783305575327594	0.045321191233940704	0.5774654022823759	0.8928638063240566	0.027321995244247027	0.5476001254894858	0.9126313032642777	0.008091091859383852	0.6436071702537017	0.9071546778384749
98	1.6333333333333333	0.3862256928742165	0.602304909629201	0.7304906420278398	0.35532034680085645	0.8462358708168247	1.186229564572639	0.33123050756068473	1.0671850821345819	1.5973386696594567	0.3039571459569127	0.8351017310504627	1.671544040934865	0.3717114484228626	0.8432842960016488	1.6652892835740192	0.3241660388574158	1.1522920237509688	1.6325474723996136	0.1729487682546736	0.6199921887317077	0.7243915539191694	0.182962008355532	0.8256492359655399	1.1718371159786072	0.1914574050230157	1.0675650219193527	1.587868482739306	0.15934970044264463	0.8404139929015136	1.661577309639775	0.11347674051206266	0.9045975910714508	1.6611274763343415	0.2072311951153855	1.1487315696564049	1.6485427561738497	0.2767599743233807	0.4303133797558537	0.26316714994301266	0.2845137779119047	0.28796657682396715	0.05366539696795236	0.2727239330337498	0.2792913156657912	0.20534029458432299	0.44114469626703445	0.4727790693877936	0.3234712368151992	0.5021000338873005	0.5644058023943059	0.569106002983582	0.49227005193170736	0.5944894707701905	0.8253197299543101	0.42812118959288303	0.5822032399336694	0.94484180056882	0.4463669070006838	0.5632268040810344	0.9594785149138507	0.4723768019154152	0.5845832303559849	0.957858741285119	0.1196513519476546	0.5099831440982012	0.284142132378772	0.046621789706254156	0.6248922747280675	0.5264452353530168	0.028008816500944844	0.6358681092465679	0.7833258979175237	0.04560264177062387	0.5786574882591043	0.8928136880808366	0.025827979357101013	0.5521178941869871	0.9124580826873936	0.00777771485727545	0.6423430914128725	0.9083140510857035
99	1.65	0.3862745124123078	0.6024304479153314	0.7305017153947274	0.355144026709667	0.846082297368624	1.186096643523661	0.331320275073443	1.0675626017689503	1.5974166344480876	0.30407085220804975	0.8351727510971745	1.6715486134054913	0.37161977830724846	0.8426749205010815	1.6651490117223744	0.32419252033918644	1.152332695821962	1.6325803925386753	0.17304127229096586	0.6196077669025455	0.7244832751283967	0.18297481519275013	0.8255445691477898	1.171829277573545	0.19140410157737794	1.067139152236896	1.5863205346129705	0.15931559252693983	0.8404313145163269	1.661576242458269	0.11321158981877938	0.9042473787683071	1.659620278580865	0.20763194914832472	1.1476980909647576	1.6473798782444389	0.27675413107558927	0.4303307678112744	0.26323990582539525	0.2844751322502752	0.2877733663776537	0.053080183433989264	0.27272582162972303	0.27937644552440977	0.2053684013292123	0.44113753238714376	0.4727532353680607	0.32347629727413507	0.5015274119980091	0.5640872531898726	0.5686862060380673	0.4922658166981449	0.594536152586738	0.8253373647674369	0.4283896011936908	0.5814922989671912	0.945862627306564	0.44873605084581636	0.5675820959435331	0.9595304107875692	0.47260619682851224	0.5854880361250825	0.9587955837260113	0.11964595266773523	0.5099682373884387	0.2841327546079023	0.046442018120209184	0.6250427767275804	0.5274199604644007	0.027513781138681005	0.63685683416147	0.7836121466905417	0.04642314323386209	0.5823739251810207	0.8926289210602025	0.024087999734466473	0.5584265744683976	0.9120649019824222	0.007320891708640808	0.639786698495509	0.9092224569905151
100	1.6666666666666667	0.38629252777522516	0.6025103813660578	0.7305336685887192	0.3550270942446939	0.8459594871060281	1.1860380107058157	0.3313260865252055	1.0676143269368525	1.5974213038603033	0.3039186622888033	0.8354228342717996	1.6716140936513144	0.3715678230927503	0.8429837015466298	1.6661982060755958	0.3242097892352347	1.1524051544531102	1.6326257644621267	0.1730413895218048	0.6195952237130995	0.7245521185952414	0.18299573245431366	0.8255489212370198	1.1718136954586762	0.1912874906550146	1.065364672382961	1.583838582032287	0.15938487238299215	0.8402959180915957	1.6611972345290535	0.11306284663583033	0.9035969648661893	1.6584511277308978	0.2080293741629114	1.1474830367654274	1.6467083709688422	0.27675725935154016	0.4303513884296547	0.2632819925994765	0.2849346956668627	0.2890683678871566	0.05162122119970151	0.27272644249996697	0.27941762897704076	0.20530661584695867	0.4411248478307104	0.4727391288986113	0.3234732274208595	0.5003273513646219	0.563341035749368	0.5676278493834246	0.49227366912977466	0.5945881880878403	0.8253769316387842	0.4287259164761105	0.584218674950309	0.9472836101357993	0.4507350607924967	0.5713132447804022	0.959614213992409	0.4729123744523662	0.5862419041993066	0.9600406191197711	0.11964157586570874	0.509959581415898	0.28413019856289035	0.04633074574437102	0.6253094705137962	0.5278087265668319	0.027306706169063104	0.6366655347975252	0.78371440952916	0.047700230514418164	0.5886525333231074	0.8923740173100707	0.02209960616195682	0.5673387726941372	0.9116120589903111	0.006716812080003713	0.6401395494816797	0.9094282806346676
101	1.6833333333333331	0.38627677306646246	0.602550192463694	0.7305756810239107	0.3549436301757931	0.8458945625025317	1.186051390210546	0.33086735903291475	1.0659496781993147	1.5970981946722573	0.3030190838746832	0.8359255863519293	1.6717293521157064	0.3711726613339217	0.8450436528126954	1.6679425993901908	0.32419646687062526	1.152418409431326	1.6326639383029062	0.172617735861709	0.6210554471512049	0.7245043891111903	0.18300127888326195	0.8255679307489151	1.1718059101112903	0.1912265971465309	1.0637660174187904	1.5821740393798323	0.15963599072080942	0.8398979599883025	1.6602121893992763	0.11328010061798971	0.9031639713720465	1.6580846737135617	0.20789807707151325	1.149500939177627	1.6469626195552405	0.2767659861391412	0.4303663992195075	0.26328811523141404	0.2859711680850732	0.2920243158260867	0.05001773137394702	0.2727065068363048	0.27927559523921425	0.20496030163363288	0.4411137028017372	0.47273327701885515	0.3234673590585595	0.49880536030998823	0.5623909453403931	0.5661789329655899	0.49230594776729464	0.5946220090757112	0.825423079168097	0.42889326608739586	0.5894510500095614	0.9483229504805719	0.45153604580480255	0.5732744110463052	0.959675651461153	0.4732933343024126	0.5868289292604414	0.9610296082960104	0.11963932474425842	0.5099557562556298	0.2841331423881322	0.04615578028370645	0.625765704771243	0.5278338375232102	0.026824653508389515	0.6378582813518855	0.7828690250710479	0.04917579083486515	0.595979548888018	0.8921671249941614	0.020626253779128953	0.5760377873576604	0.911330181680625	0.006024442307557383	0.646619060255369	0.9092099147062411
102	1.7	0.38624140808672636	0.6025992755087792	0.7306091218304754	0.35486799119307044	0.8458719292532524	1.186122554287062	0.3296780086462584	1.0616171923529303	1.5962827817365763	0.3011694493904913	0.8361653668772728	1.6717914662123212	0.3702128156970297	0.849712161092919	1.6696431201691733	0.3241568210239608	1.1523133851762555	1.6326836033646241	0.17153668562601493	0.6247611156993552	0.7242902462077166	0.18299206944198695	0.825540104169133	1.1718093789963249	0.1912177364616057	1.0635303874995001	1.582395601938746	0.15999732784283774	0.8393286048429102	1.6588646166309942	0.11378566090366699	0.9032541768422448	1.6582715195323812	0.20689905149862503	1.1550302308367124	1.6476666457143674	0.2767785264211054	0.43037613253412704	0.2632750692233947	0.28727382144492564	0.2956946834275207	0.04895545764128979	0.27265467605089805	0.2788695089537512	0.20420098628916553	0.44110922726620194	0.4727221080965268	0.3234647324880975	0.49755610651456544	0.5617062171151328	0.5650995017150324	0.49236474578701916	0.5946663377081691	0.8254486645451676	0.42909889262598255	0.59503612450102	0.9486812217982233	0.4515663476329208	0.573998906260818	0.959691761044105	0.47387195068230326	0.5885506895515692	0.9615002232585912	0.11963851670367284	0.509953936874161	0.28413961441401947	0.04584867186663029	0.6259193276092154	0.5278564277686022	0.025916194871017036	0.6427573017305518	0.780971088522	0.05045709988618092	0.6022361428520684	0.8920629428528208	0.02017169866904636	0.5801525503418489	0.9113084394875464	0.005388385955742355	0.6565699702351178	0.9090459403920751
